<?xml version="1.0" encoding="UTF-8"?>
<!DOCTYPE svg PUBLIC "-//W3C//DTD SVG 1.1//EN" "http://www.w3.org/Graphics/SVG/1.1/DTD/svg11.dtd">
<!-- Creator: CorelDRAW 2017 -->
<svg xmlns="http://www.w3.org/2000/svg" xml:space="preserve" width="155mm" height="39.5mm" version="1.1" style="shape-rendering:geometricPrecision; text-rendering:geometricPrecision; image-rendering:optimizeQuality; fill-rule:evenodd; clip-rule:evenodd"
viewBox="0 0 15500 3950"
 xmlns:xlink="http://www.w3.org/1999/xlink">
 <defs>
  <style type="text/css">
   <![CDATA[
    .fil0 {fill:#FF0080}
    .fil1 {fill:#FF0080;fill-rule:nonzero}
   ]]>
  </style>
 </defs>
 <g id="Livello_x0020_1">
  <metadata id="CorelCorpID_0Corel-Layer"/>
  <g id="_3246186894432">
   <path class="fil0" d="M2661 3581l250 0c73,-35 527,-66 724,-507 48,-108 46,-234 88,-320 93,-189 193,-339 295,-522 107,-192 164,-421 41,-647 -114,-211 -177,-334 -321,-494 -125,-139 -288,-252 -458,-356 -241,-147 -918,-443 -1169,-458 37,428 696,362 658,832 -128,168 -448,87 -281,398 49,92 119,140 128,265 15,210 -177,426 -386,386 -381,-72 -315,-697 -429,-743 -134,-9 -176,203 -375,220 -267,22 -423,-502 -188,-762 214,-237 274,-584 -29,-462 -62,25 -137,82 -178,115 -309,249 -568,658 -702,1055 -99,292 -163,703 -37,1015 180,448 753,594 1194,445 297,-101 528,229 749,384 277,194 299,103 426,155l0 1z"/>
   <path class="fil1" d="M15126 3320c19,-11 32,-11 42,11 11,21 7,35 -11,42 -45,18 -89,39 -131,63 -42,24 -87,47 -134,68 -47,21 -90,39 -129,55 -38,16 -72,22 -100,22 -28,0 -55,-7 -81,-24 -26,-17 -49,-42 -68,-74 -19,-32 -45,-75 -76,-131 -144,73 -279,120 -431,182 -146,60 -263,48 -347,48 -63,0 -110,-14 -142,-42 -42,-28 -71,-74 -87,-138 -16,-65 -24,-142 -24,-232 0,-81 7,-156 21,-225 18,-60 103,-117 257,-175 154,-58 295,-97 423,-120 128,-23 208,-34 239,-34 18,0 32,-1 42,-3 11,-2 16,-17 16,-45 0,-181 -11,-333 -32,-454 -21,-122 -74,-224 -158,-308 -74,-66 -151,-99 -231,-99 -39,0 -80,9 -123,26 -44,18 -76,40 -97,68 -21,28 -32,70 -32,126 0,32 0,58 0,79 -11,7 -26,18 -49,34 -22,16 -46,30 -72,42 -26,12 -55,26 -88,42 -33,16 -51,15 -54,-3 -11,-42 -16,-81 -16,-116 0,-49 11,-88 32,-118 21,-30 83,-76 187,-139 103,-63 199,-115 286,-155 88,-40 159,-60 215,-60 35,0 66,4 92,13 26,9 88,39 184,89 96,51 165,140 205,270 40,129 60,290 60,482l0 142 0 251c0,97 4,270 13,376 9,106 30,172 63,196 33,24 62,37 87,37 42,0 84,-7 126,-21 42,-14 84,-27 121,-47l2 -1zm-1334 -475c-84,76 -126,164 -126,261 0,14 4,43 13,88 9,46 25,88 50,128 24,39 61,110 110,131 49,21 125,6 229,-44 103,-50 180,-58 229,-80 49,-23 80,-43 92,-62 12,-19 18,-41 18,-66l0 -424c0,-35 -19,-53 -58,-53 -137,0 -249,6 -336,18 -88,12 -161,46 -221,102l0 1z"/>
   <path class="fil1" d="M5346 3576c-108,1 -231,4 -369,4 -138,0 -240,0 -304,0 -37,0 -55,-12 -55,-35 0,-27 22,-49 66,-57 45,-8 95,-29 153,-43 58,-13 102,-37 133,-72 31,-36 46,-261 46,-677l0 -1549c0,-225 -3,-388 -8,-490 -5,-103 -18,-167 -38,-194 -50,-53 -122,-85 -214,-95 -92,-10 -139,-27 -139,-50 0,-27 25,-40 76,-40 47,0 141,0 283,0 141,0 266,0 373,0l378 0c37,0 55,13 55,40 0,24 -19,35 -55,35 -47,0 -95,9 -144,28 -49,18 -87,43 -116,73 -29,30 -49,88 -61,172 -12,84 -18,250 -18,496l0 1458c0,354 4,563 13,627 8,64 26,117 53,157 27,40 140,61 338,61 229,0 463,-20 704,-61 240,-40 399,-90 477,-149 77,-59 127,-103 149,-134 22,-30 58,-101 108,-212 10,-17 22,-23 35,-18 13,5 17,16 10,33 -30,156 -58,283 -83,378 -25,95 -49,172 -71,230 -22,59 -41,87 -58,88 -14,-1 -39,-3 -77,-8 -37,-5 -76,-7 -116,-7l-1526 10 2 1z"/>
   <path class="fil1" d="M8057 288c21,-7 44,-11 69,-11 42,0 72,7 90,21 56,25 85,70 85,137 0,67 -19,117 -58,151 -39,33 -79,50 -122,50l-58 0c-56,-23 -95,-69 -116,-137 -18,-99 19,-169 111,-211l-1 0zm90 1269c11,-18 19,-26 26,-26 11,7 16,21 16,42 0,7 -8,197 -24,571 -16,374 -24,634 -24,782 0,194 8,325 24,394 16,69 44,113 85,132 41,19 85,30 135,32 49,2 99,3 148,3 28,0 42,17 42,50 0,30 -14,45 -42,45l-529 0 -417 0c-25,0 -37,-17 -37,-50 0,-30 12,-45 37,-45l116 -11c78,-14 116,-56 116,-126 4,-25 6,-72 8,-143 2,-70 4,-133 8,-189l0 -564c0,-113 -6,-216 -19,-311 -12,-94 -34,-151 -66,-168 -32,-18 -64,-28 -98,-32 -33,-4 -70,-5 -108,-5 -14,0 -21,-7 -21,-21 0,-14 7,-21 21,-21 92,-18 209,-70 351,-159 143,-87 226,-147 251,-180l1 0z"/>
   <path class="fil1" d="M10649 2174l0 751c0,194 8,325 24,394 16,69 44,113 85,132 41,19 74,30 100,32 26,2 54,3 82,3 28,0 42,17 42,50 0,30 -18,45 -53,45l-423 0 -413 0c-25,0 -37,-17 -37,-50 0,-30 12,-45 37,-45l116 -11c74,-18 111,-60 111,-127 7,-25 11,-66 11,-124 0,-58 2,-105 5,-140l0 -69c0,-423 -15,-714 -45,-873 -30,-159 -78,-259 -145,-301 -67,-42 -116,-66 -148,-71 -32,-5 -62,-8 -90,-8 -99,0 -201,19 -307,58 -106,39 -212,92 -317,159 0,95 -4,256 -11,481 -7,226 -11,381 -11,465 0,190 10,322 28,394 19,72 48,117 85,135 38,18 81,27 129,29 48,2 94,3 139,3 35,0 53,17 53,50 0,30 -18,45 -53,45l-524 0 -413 0c-25,0 -37,-17 -37,-50 0,-30 12,-45 37,-45l122 -11c78,-14 116,-56 116,-126 4,-25 6,-72 8,-143 2,-71 4,-133 8,-190l0 -564c0,-113 -6,-216 -19,-311 -12,-94 -39,-153 -79,-174 -41,-21 -107,-32 -198,-32 -14,0 -21,-7 -21,-21 0,-14 7,-21 21,-21 95,-18 215,-71 360,-160 145,-87 226,-148 243,-181 18,-21 30,-30 37,-26 7,4 9,14 5,32 0,15 -6,70 -19,165 -12,96 -15,153 -8,170 106,-60 238,-129 396,-206 157,-78 310,-116 459,-116 99,0 187,22 263,66 76,44 137,102 181,175 44,72 66,193 66,362l2 0z"/>
   <path class="fil1" d="M12606 1114l0 -144c0,-75 -7,-132 -19,-173 -12,-41 -30,-70 -54,-86 -25,-16 -55,-28 -92,-37 -36,-9 -77,-15 -122,-19 -11,-7 -16,-13 -16,-19 0,-5 31,-14 93,-26 62,-12 142,-52 241,-120 99,-67 191,-129 270,-191 16,-13 23,-23 26,-23 4,25 9,48 16,69 -7,194 -15,422 -24,685 -9,262 -13,207 -13,319l0 830c0,108 -2,212 -5,311 -4,99 -7,192 -11,280 0,148 4,265 13,353 9,88 23,69 42,122 19,53 47,79 82,79 28,0 55,-11 85,-21l148 -53c12,-4 23,-1 37,18 14,19 14,33 0,39 -11,11 -68,40 -172,88 -104,48 -173,76 -204,88l-233 90c-14,5 -26,6 -37,8 -11,2 -20,-14 -29,-48 -9,-33 -18,-76 -26,-127 -2,-9 -19,-89 -19,-95 -168,81 -313,143 -444,190 -132,48 -266,71 -404,71 -108,0 -219,-29 -330,-87 -110,-58 -206,-147 -287,-266 -80,-120 -126,-217 -137,-291 -11,-73 -16,-121 -16,-142 0,-21 0,-37 0,-48 0,-152 30,-320 90,-504 59,-185 165,-346 316,-486 151,-139 333,-214 547,-225 215,-11 365,-18 451,-21 86,-4 138,-5 158,-5 19,0 35,-4 48,-11 12,-7 20,-28 24,-63 3,-34 5,-64 5,-89l0 -407 0 185 2 2zm-1248 767c-46,60 -80,138 -103,235 -23,97 -34,200 -34,309 0,71 4,130 11,180 7,49 25,121 53,214 28,93 89,197 184,309 95,113 192,185 293,217 100,32 192,48 276,48 190,0 324,-28 401,-85 77,-56 122,-97 134,-122 12,-25 19,-56 19,-95l0 -69c0,-81 3,-268 8,-561 5,-293 8,-460 8,-502 0,-81 -3,-133 -8,-156 -5,-23 -24,-45 -56,-66 -32,-21 -113,-46 -243,-74 -130,-28 -254,-42 -370,-42 -74,0 -127,2 -159,5 -32,4 -69,16 -111,37 -56,21 -111,50 -164,87 -53,37 -99,80 -138,130l-1 1z"/>
  </g>
 </g>
</svg>
