<svg xmlns="http://www.w3.org/2000/svg" xmlns:xlink="http://www.w3.org/1999/xlink" width="420mm" height="297mm" style="fill-rule: evenodd; clip-rule: evenodd; image-rendering: optimizeQuality; shape-rendering: geometricPrecision; text-rendering: geometricPrecision" version="1.1" viewBox="0 0 42000 29700" xml:space="preserve">
    <defs>
        <style type="text/css">
            <![CDATA[
    .fil0 {fill:#FF0080}
    .fil1 {fill:#FF0080;fill-rule:nonzero}
   ]]>
        </style>
    </defs>
    <g id="_3246186894432">
        <path d="M 5367 3775 l 250 0 c 73 -35 527 -66 724 -507 c 48 -108 46 -234 88 -320 c 93 -189 193 -339 295 -522 c 107 -192 164 -421 41 -647 c -114 -211 -177 -334 -321 -494 c -125 -139 -288 -252 -458 -356 c -241 -147 -918 -443 -1169 -458 c 37 428 696 362 658 832 c -128 168 -448 87 -281 398 c 49 92 119 140 128 265 c 15 210 -177 426 -386 386 c -381 -72 -315 -697 -429 -743 c -134 -9 -176 203 -375 220 c -267 22 -423 -502 -188 -762 c 214 -237 274 -584 -29 -462 c -62 25 -137 82 -178 115 c -309 249 -568 658 -702 1055 c -99 292 -163 703 -37 1015 c 180 448 753 594 1194 445 c 297 -101 528 229 749 384 c 277 194 299 103 426 155 z" class="fil0"/>
        <path d="M 17832 3514 c 19 -11 32 -11 42 11 c 11 21 7 35 -11 42 c -45 18 -89 39 -131 63 c -42 24 -87 47 -134 68 c -47 21 -90 39 -129 55 c -38 16 -72 22 -100 22 c -28 0 -55 -7 -81 -24 c -26 -17 -49 -42 -68 -74 c -19 -32 -45 -75 -76 -131 c -144 73 -279 120 -431 182 c -146 60 -263 48 -347 48 c -63 0 -110 -14 -142 -42 c -42 -28 -71 -74 -87 -138 c -16 -65 -24 -142 -24 -232 c 0 -81 7 -156 21 -225 c 18 -60 103 -117 257 -175 c 154 -58 295 -97 423 -120 c 128 -23 208 -34 239 -34 c 18 0 32 -1 42 -3 c 11 -2 16 -17 16 -45 c 0 -181 -11 -333 -32 -454 c -21 -122 -74 -224 -158 -308 c -74 -66 -151 -99 -231 -99 c -39 0 -80 9 -123 26 c -44 18 -76 40 -97 68 c -21 28 -32 70 -32 126 c 0 32 0 58 0 79 c -11 7 -26 18 -49 34 c -22 16 -46 30 -72 42 c -26 12 -55 26 -88 42 c -33 16 -51 15 -54 -3 c -11 -42 -16 -81 -16 -116 c 0 -49 11 -88 32 -118 c 21 -30 83 -76 187 -139 c 103 -63 199 -115 286 -155 c 88 -40 159 -60 215 -60 c 35 0 66 4 92 13 c 26 9 88 39 184 89 c 96 51 165 140 205 270 c 40 129 60 290 60 482 l 0 142 l 0 251 c 0 97 4 270 13 376 c 9 106 30 172 63 196 c 33 24 62 37 87 37 c 42 0 84 -7 126 -21 c 42 -14 84 -27 121 -47 z m -1334 -475 c -84 76 -126 164 -126 261 c 0 14 4 43 13 88 c 9 46 25 88 50 128 c 24 39 61 110 110 131 c 49 21 125 6 229 -44 c 103 -50 180 -58 229 -80 c 49 -23 80 -43 92 -62 c 12 -19 18 -41 18 -66 l 0 -424 c 0 -35 -19 -53 -58 -53 c -137 0 -249 6 -336 18 c -88 12 -161 46 -221 102 z" class="fil1"/>
        <path d="M 8052 3770 c -108 1 -231 4 -369 4 c -138 0 -240 0 -304 0 c -37 0 -55 -12 -55 -35 c 0 -27 22 -49 66 -57 c 45 -8 95 -29 153 -43 c 58 -13 102 -37 133 -72 c 31 -36 46 -261 46 -677 l 0 -1549 c 0 -225 -3 -388 -8 -490 c -5 -103 -18 -167 -38 -194 c -50 -53 -122 -85 -214 -95 c -92 -10 -139 -27 -139 -50 c 0 -27 25 -40 76 -40 c 47 0 141 0 283 0 c 141 0 266 0 373 0 l 378 0 c 37 0 55 13 55 40 c 0 24 -19 35 -55 35 c -47 0 -95 9 -144 28 c -49 18 -87 43 -116 73 c -29 30 -49 88 -61 172 c -12 84 -18 250 -18 496 l 0 1458 c 0 354 4 563 13 627 c 8 64 26 117 53 157 c 27 40 140 61 338 61 c 229 0 463 -20 704 -61 c 240 -40 399 -90 477 -149 c 77 -59 127 -103 149 -134 c 22 -30 58 -101 108 -212 c 10 -17 22 -23 35 -18 c 13 5 17 16 10 33 c -30 156 -58 283 -83 378 c -25 95 -49 172 -71 230 c -22 59 -41 87 -58 88 c -14 -1 -39 -3 -77 -8 c -37 -5 -76 -7 -116 -7 l -1526 10 z" class="fil1"/>
        <path d="M 10763 482 c 21 -7 44 -11 69 -11 c 42 0 72 7 90 21 c 56 25 85 70 85 137 c 0 67 -19 117 -58 151 c -39 33 -79 50 -122 50 l -58 0 c -56 -23 -95 -69 -116 -137 c -18 -99 19 -169 111 -211 z m 90 1269 c 11 -18 19 -26 26 -26 c 11 7 16 21 16 42 c 0 7 -8 197 -24 571 c -16 374 -24 634 -24 782 c 0 194 8 325 24 394 c 16 69 44 113 85 132 c 41 19 85 30 135 32 c 49 2 99 3 148 3 c 28 0 42 17 42 50 c 0 30 -14 45 -42 45 l -529 0 l -417 0 c -25 0 -37 -17 -37 -50 c 0 -30 12 -45 37 -45 l 116 -11 c 78 -14 116 -56 116 -126 c 4 -25 6 -72 8 -143 c 2 -70 4 -133 8 -189 l 0 -564 c 0 -113 -6 -216 -19 -311 c -12 -94 -34 -151 -66 -168 c -32 -18 -64 -28 -98 -32 c -33 -4 -70 -5 -108 -5 c -14 0 -21 -7 -21 -21 c 0 -14 7 -21 21 -21 c 92 -18 209 -70 351 -159 c 143 -87 226 -147 251 -180 z" class="fil1"/>
        <path d="M 13355 2368 l 0 751 c 0 194 8 325 24 394 c 16 69 44 113 85 132 c 41 19 74 30 100 32 c 26 2 54 3 82 3 c 28 0 42 17 42 50 c 0 30 -18 45 -53 45 l -423 0 l -413 0 c -25 0 -37 -17 -37 -50 c 0 -30 12 -45 37 -45 l 116 -11 c 74 -18 111 -60 111 -127 c 7 -25 11 -66 11 -124 c 0 -58 2 -105 5 -140 l 0 -69 c 0 -423 -15 -714 -45 -873 c -30 -159 -78 -259 -145 -301 c -67 -42 -116 -66 -148 -71 c -32 -5 -62 -8 -90 -8 c -99 0 -201 19 -307 58 c -106 39 -212 92 -317 159 c 0 95 -4 256 -11 481 c -7 226 -11 381 -11 465 c 0 190 10 322 28 394 c 19 72 48 117 85 135 c 38 18 81 27 129 29 c 48 2 94 3 139 3 c 35 0 53 17 53 50 c 0 30 -18 45 -53 45 l -524 0 l -413 0 c -25 0 -37 -17 -37 -50 c 0 -30 12 -45 37 -45 l 122 -11 c 78 -14 116 -56 116 -126 c 4 -25 6 -72 8 -143 c 2 -71 4 -133 8 -190 l 0 -564 c 0 -113 -6 -216 -19 -311 c -12 -94 -39 -153 -79 -174 c -41 -21 -107 -32 -198 -32 c -14 0 -21 -7 -21 -21 c 0 -14 7 -21 21 -21 c 95 -18 215 -71 360 -160 c 145 -87 226 -148 243 -181 c 18 -21 30 -30 37 -26 c 7 4 9 14 5 32 c 0 15 -6 70 -19 165 c -12 96 -15 153 -8 170 c 106 -60 238 -129 396 -206 c 157 -78 310 -116 459 -116 c 99 0 187 22 263 66 c 76 44 137 102 181 175 c 44 72 66 193 66 362 z" class="fil1"/>
        <path d="M 15312 1308 l 0 -144 c 0 -75 -7 -132 -19 -173 c -12 -41 -30 -70 -54 -86 c -25 -16 -55 -28 -92 -37 c -36 -9 -77 -15 -122 -19 c -11 -7 -16 -13 -16 -19 c 0 -5 31 -14 93 -26 c 62 -12 142 -52 241 -120 c 99 -67 191 -129 270 -191 c 16 -13 23 -23 26 -23 c 4 25 9 48 16 69 c -7 194 -15 422 -24 685 c -9 262 -13 207 -13 319 l 0 830 c 0 108 -2 212 -5 311 c -4 99 -7 192 -11 280 c 0 148 4 265 13 353 c 9 88 23 69 42 122 c 19 53 47 79 82 79 c 28 0 55 -11 85 -21 l 148 -53 c 12 -4 23 -1 37 18 c 14 19 14 33 0 39 c -11 11 -68 40 -172 88 c -104 48 -173 76 -204 88 l -233 90 c -14 5 -26 6 -37 8 c -11 2 -20 -14 -29 -48 c -9 -33 -18 -76 -26 -127 c -2 -9 -19 -89 -19 -95 c -168 81 -313 143 -444 190 c -132 48 -266 71 -404 71 c -108 0 -219 -29 -330 -87 c -110 -58 -206 -147 -287 -266 c -80 -120 -126 -217 -137 -291 c -11 -73 -16 -121 -16 -142 c 0 -21 0 -37 0 -48 c 0 -152 30 -320 90 -504 c 59 -185 165 -346 316 -486 c 151 -139 333 -214 547 -225 c 215 -11 365 -18 451 -21 c 86 -4 138 -5 158 -5 c 19 0 35 -4 48 -11 c 12 -7 20 -28 24 -63 c 3 -34 5 -64 5 -89 l 0 -407 l 0 185 z m -1248 767 c -46 60 -80 138 -103 235 c -23 97 -34 200 -34 309 c 0 71 4 130 11 180 c 7 49 25 121 53 214 c 28 93 89 197 184 309 c 95 113 192 185 293 217 c 100 32 192 48 276 48 c 190 0 324 -28 401 -85 c 77 -56 122 -97 134 -122 c 12 -25 19 -56 19 -95 l 0 -69 c 0 -81 3 -268 8 -561 c 5 -293 8 -460 8 -502 c 0 -81 -3 -133 -8 -156 c -5 -23 -24 -45 -56 -66 c -32 -21 -113 -46 -243 -74 c -130 -28 -254 -42 -370 -42 c -74 0 -127 2 -159 5 c -32 4 -69 16 -111 37 c -56 21 -111 50 -164 87 c -53 37 -99 80 -138 130 z" class="fil1"/>
    </g>
</svg>